<?xml version="1.0" encoding="UTF-8"?>
<svg id="Layer_1" data-name="Layer 1" xmlns="http://www.w3.org/2000/svg" viewBox="0 0 473.94000244140625 533.34002697467804">
  <defs>
    <style>
      .cls-1 {
        fill: #659ad2;
      }

      .cls-2 {
        fill: #fff;
      }

      .cls-3 {
        fill: #004482;
      }

      .cls-4 {
        fill: #00599c;
      }
    </style>
  </defs>
  <path class="cls-4" d="M467.910003662109375,400.00000011920929c3.720001220703125-6.44000244140625,6.029998779296875-13.70001220703125,6.029998779296875-20.220001220703125V153.550003170968012c0-6.520004272460938-2.30999755859375-13.770004272460938-6.029998779296875-20.220001220703125l-230.94000244140625,133.330001831054688,230.94000244140625,133.329986572264716v.010009765625Z"/>
  <path class="cls-3" d="M257.489990234375,528.45001232624054l195.92999267578125-113.1199951171875c5.6400146484375-3.260009765625,10.769989013671875-8.8900146484375,14.489990234375-15.329986572265625l-230.94000244140625-133.329986572264716L6.03000020980835,400.00000011920929c3.71999979019165,6.44000244140625,8.850000858306885,12.07000732421875,14.490000247955322,15.329986572265625l195.929996490478516,113.120025634765625c11.289993286132812,6.52001953125,29.759994506835938,6.52001953125,41.039993286132812,0Z"/>
  <path class="cls-1" d="M467.910003662109375,133.330001950264887c-3.720001220703125-6.44000244140625-8.850006103515625-12.069999694824219-14.489990234375-15.330001831054688L257.489990234375,4.889999985695795c-11.289993286132812-6.519999980926514-29.759994506835938-6.519999980926514-41.040008544921875,0L20.520000457763672,118.000000119210199C9.229999542236328,124.519996762276605,0,140.520004391671137,0,153.550003170968012v226.229995727538153c0,6.519989013671875,2.309999942779541,13.779998779296875,6.03000020980835,20.220001220703125l230.940001010894775-133.330017089842841,230.94000244140625-133.330001831054688v-.009979248046875Z"/>
  <path class="cls-2" d="M236.970001220703125,424.649994015693665c-87.110000610351562,0-157.979995727539062-70.8699951171875-157.979995727539062-157.980010986327216,0-87.110015869140625,70.8699951171875-157.97998046875,157.979995727539062-157.97998046875,56.209991455078125,0,108.6300048828125,30.25,136.80999755859375,78.94000244140625l-68.3699951171875,39.55999755859375c-14.100006103515625-24.3699951171875-40.329986572265625-39.509994506835938-68.44000244140625-39.509994506835938-43.55999755859375,0-78.989990234375,35.430007934570312-78.989990234375,78.990005493164062,0,43.559997558592841,35.42999267578125,78.989990234374091,78.989990234375,78.989990234374091,28.110015869140625,0,54.339996337890625-15.1400146484375,68.44000244140625-39.519989013671875l68.3699951171875,39.55999755859375c-28.17999267578125,48.70001220703125-80.600006103515625,78.95001220703125-136.80999755859375,78.95001220703125h0v-.000030517578125Z"/>
  <path class="cls-2" d="M377.3900146484375,240.339996457100824h-17.54998779296875v17.54998779296875h-17.54998779296875v17.549987792967841h17.54998779296875v17.54998779296875h17.54998779296875v-17.54998779296875h17.54998779296875v-17.549987792967841h-17.54998779296875v-17.54998779296875Zm65.82000732421875,0h-17.54998779296875v17.54998779296875h-17.54998779296875v17.549987792967841h17.54998779296875v17.54998779296875h17.54998779296875v-17.54998779296875h17.54998779296875v-17.549987792967841h-17.54998779296875v-17.54998779296875Z"/>
</svg>